<svg width="17" height="16" viewBox="0 0 17 16" fill="none" xmlns="http://www.w3.org/2000/svg">
<path d="M15.7183 2.23907C15.3175 1.83809 14.8416 1.51999 14.3179 1.30297C13.7941 1.08595 13.2327 0.974243 12.6658 0.974243C12.0988 0.974243 11.5374 1.08595 11.0137 1.30297C10.4899 1.51999 10.014 1.83809 9.61321 2.23907L8.78141 3.07088L7.9496 2.23907C7.14002 1.42949 6.04198 0.974663 4.89705 0.974663C3.75212 0.974663 2.65408 1.42949 1.84449 2.23907C1.0349 3.04866 0.580078 4.1467 0.580078 5.29163C0.580078 6.43656 1.0349 7.5346 1.84449 8.34419L2.67629 9.17599L8.78141 15.2811L14.8865 9.17599L15.7183 8.34419C16.1193 7.94339 16.4374 7.46751 16.6544 6.94374C16.8715 6.41998 16.9832 5.85858 16.9832 5.29163C16.9832 4.72468 16.8715 4.16329 16.6544 3.63952C16.4374 3.11575 16.1193 2.63987 15.7183 2.23907Z" fill="#8F8F8F"/>
</svg>
