<svg width="21" height="17" viewBox="0 0 21 17" fill="none" xmlns="http://www.w3.org/2000/svg">
<path d="M20.6617 13.1744C20.6617 13.1274 20.597 13.0303 20.5179 12.9588C20.386 12.8394 19.6878 12.8286 12.0864 12.8286H3.79882L2.07836 14.5393C1.13209 15.4801 0.322587 16.3142 0.279485 16.3927C0.0701105 16.7733 -0.207693 16.7612 8.77576 16.7612H17.163L18.9123 15.0106C19.8745 14.0477 20.6617 13.2215 20.6617 13.1744Z" fill="white"/>
<path d="M20.5991 10.5834C20.6882 10.3877 20.6312 10.3209 18.9066 8.59626L17.122 6.81162L8.8343 6.79093C0.910627 6.77111 0.538833 6.77646 0.369257 6.91379C0.0912179 7.1389 0.170028 7.24343 1.98149 9.05324L3.67403 10.7443L20.5069 10.7857L20.5991 10.5834Z" fill="white"/>
<path d="M18.8686 3.09739C20.6995 1.27334 20.7836 1.16228 20.5057 0.937178C20.3381 0.801501 19.9397 0.795207 12.1781 0.805353C7.69481 0.811252 3.95399 0.830522 3.86519 0.848141C3.77647 0.865759 2.91152 1.67298 1.94322 2.64207C0.246517 4.34003 0.185953 4.41121 0.274281 4.60493L0.365833 4.80597H17.1535L18.8686 3.09739Z" fill="white"/>
</svg>
